M48
INCH,TZ
T1C0.032
T2C0.032
%
G90
G05
T1
X45377Y-47549
X45660Y-45900
X46850Y-38701
X48009Y-47211
X48613Y-45986
X52362Y-38268
X53262Y-47433
X54242Y-47336
X59253Y-43887
X59660Y-41142
X61299Y-43898
X61590Y-40268
X62206Y-45944
X62283Y-46969
X62795Y-47362
X63189Y-46260
X63386Y-47717
X63556Y-44314
X64291Y-44213
X64858Y-47985
T2
X36114Y-46063
X37114Y-46063
X37839Y-39051
X37839Y-42051
X38839Y-39051
X38839Y-42051
X39839Y-39051
X39839Y-42051
X40839Y-39051
X40839Y-42051
X41839Y-39051
X41839Y-42051
X42839Y-39051
X42839Y-42051
X43839Y-39051
X43839Y-42051
X44839Y-39051
X44839Y-42051
X46850Y-39945
X46850Y-41945
X52343Y-39126
X52343Y-45126
X53343Y-39126
X53343Y-45126
X54343Y-39126
X54343Y-45126
X55343Y-39126
X55343Y-45126
X56343Y-39126
X56343Y-45126
X57343Y-39126
X57343Y-45126
X58343Y-39126
X58343Y-45126
X59343Y-39126
X59343Y-45126
X60343Y-39126
X60343Y-45126
X61343Y-39126
X61343Y-45126
X62343Y-39126
X62343Y-45126
X63343Y-39126
X63343Y-45126
X64343Y-39126
X64343Y-45126
X65343Y-39126
X65343Y-45126
X66343Y-39126
X66343Y-45126
X67343Y-39126
X67343Y-45126
X71047Y-46457
X73047Y-46457
T0
M30
