G04 (created by PCBNEW (2013-07-07 BZR 4022)-stable) date 27/01/2014 10:53:56*
%MOIN*%
G04 Gerber Fmt 3.4, Leading zero omitted, Abs format*
%FSLAX34Y34*%
G01*
G70*
G90*
G04 APERTURE LIST*
%ADD10C,0.00590551*%
%ADD11R,0.075X0.075*%
%ADD12C,0.075*%
%ADD13R,0.0791X0.2956*%
%ADD14R,0.0987X0.2956*%
G04 APERTURE END LIST*
G54D10*
G54D11*
X67343Y-39126D03*
G54D12*
X66343Y-39126D03*
X65343Y-39126D03*
X64343Y-39126D03*
X63343Y-39126D03*
X62343Y-39126D03*
X61343Y-39126D03*
X60343Y-39126D03*
X59343Y-39126D03*
X58343Y-39126D03*
X57343Y-39126D03*
X56343Y-39126D03*
X55343Y-39126D03*
X54343Y-39126D03*
X53343Y-39126D03*
X52343Y-39126D03*
X52343Y-45126D03*
X53343Y-45126D03*
X54343Y-45126D03*
X55343Y-45126D03*
X56343Y-45126D03*
X57343Y-45126D03*
X58343Y-45126D03*
X59343Y-45126D03*
X60343Y-45126D03*
X61343Y-45126D03*
X62343Y-45126D03*
X63343Y-45126D03*
X64343Y-45126D03*
X65343Y-45126D03*
X66343Y-45126D03*
X67343Y-45126D03*
G54D11*
X44839Y-39051D03*
G54D12*
X43839Y-39051D03*
X42839Y-39051D03*
X41839Y-39051D03*
X40839Y-39051D03*
X39839Y-39051D03*
X38839Y-39051D03*
X37839Y-39051D03*
X37839Y-42051D03*
X38839Y-42051D03*
X39839Y-42051D03*
X40839Y-42051D03*
X41839Y-42051D03*
X42839Y-42051D03*
X43839Y-42051D03*
X44839Y-42051D03*
X37114Y-46063D03*
X36114Y-46063D03*
G54D13*
X44091Y-49748D03*
X45075Y-49748D03*
X46059Y-49748D03*
X47043Y-49748D03*
X48028Y-49748D03*
X49012Y-49748D03*
X49996Y-49748D03*
X50980Y-49748D03*
X51965Y-49748D03*
X52949Y-49748D03*
X53933Y-49748D03*
X54917Y-49748D03*
X55902Y-49748D03*
X56886Y-49748D03*
X57870Y-49748D03*
X58854Y-49748D03*
X59839Y-49748D03*
X60823Y-49748D03*
X61807Y-49748D03*
X62791Y-49748D03*
X63776Y-49748D03*
G54D14*
X43008Y-49748D03*
X64858Y-49748D03*
X43008Y-49748D03*
G54D13*
X44091Y-49748D03*
X45075Y-49748D03*
X46059Y-49748D03*
X47043Y-49748D03*
X48028Y-49748D03*
X49012Y-49748D03*
X49996Y-49748D03*
X50980Y-49748D03*
X51965Y-49748D03*
X52949Y-49748D03*
X53933Y-49748D03*
X54917Y-49748D03*
X55902Y-49748D03*
X56886Y-49748D03*
X57870Y-49748D03*
X58854Y-49748D03*
X59839Y-49748D03*
X60823Y-49748D03*
X61807Y-49748D03*
X62791Y-49748D03*
X63776Y-49748D03*
G54D14*
X64858Y-49748D03*
G54D12*
X46850Y-41945D03*
X46850Y-39945D03*
X71047Y-46457D03*
X73047Y-46457D03*
M02*
