G04 (created by PCBNEW (2013-07-07 BZR 4022)-stable) date 27/01/2014 10:53:56*
%MOIN*%
G04 Gerber Fmt 3.4, Leading zero omitted, Abs format*
%FSLAX34Y34*%
G01*
G70*
G90*
G04 APERTURE LIST*
%ADD10C,0.00590551*%
%ADD11R,0.055X0.055*%
%ADD12C,0.055*%
%ADD13R,0.0787X0.2756*%
%ADD14R,0.0591X0.2756*%
%ADD15C,0.035*%
%ADD16C,0.0236*%
G04 APERTURE END LIST*
G54D10*
G54D11*
X67343Y-39126D03*
G54D12*
X66343Y-39126D03*
X65343Y-39126D03*
X64343Y-39126D03*
X63343Y-39126D03*
X62343Y-39126D03*
X61343Y-39126D03*
X60343Y-39126D03*
X59343Y-39126D03*
X58343Y-39126D03*
X57343Y-39126D03*
X56343Y-39126D03*
X55343Y-39126D03*
X54343Y-39126D03*
X53343Y-39126D03*
X52343Y-39126D03*
X52343Y-45126D03*
X53343Y-45126D03*
X54343Y-45126D03*
X55343Y-45126D03*
X56343Y-45126D03*
X57343Y-45126D03*
X58343Y-45126D03*
X59343Y-45126D03*
X60343Y-45126D03*
X61343Y-45126D03*
X62343Y-45126D03*
X63343Y-45126D03*
X64343Y-45126D03*
X65343Y-45126D03*
X66343Y-45126D03*
X67343Y-45126D03*
G54D11*
X44839Y-39051D03*
G54D12*
X43839Y-39051D03*
X42839Y-39051D03*
X41839Y-39051D03*
X40839Y-39051D03*
X39839Y-39051D03*
X38839Y-39051D03*
X37839Y-39051D03*
X37839Y-42051D03*
X38839Y-42051D03*
X39839Y-42051D03*
X40839Y-42051D03*
X41839Y-42051D03*
X42839Y-42051D03*
X43839Y-42051D03*
X44839Y-42051D03*
X37114Y-46063D03*
X36114Y-46063D03*
G54D13*
X43008Y-49748D03*
G54D14*
X44091Y-49748D03*
X45075Y-49748D03*
X46059Y-49748D03*
X47043Y-49748D03*
X48028Y-49748D03*
X49012Y-49748D03*
X49996Y-49748D03*
X50980Y-49748D03*
X51965Y-49748D03*
X52949Y-49748D03*
X53933Y-49748D03*
X54917Y-49748D03*
X55902Y-49748D03*
X56886Y-49748D03*
X57870Y-49748D03*
X58854Y-49748D03*
X59839Y-49748D03*
X60823Y-49748D03*
X61807Y-49748D03*
X62791Y-49748D03*
X63776Y-49748D03*
G54D13*
X64858Y-49748D03*
G54D12*
X46850Y-41945D03*
X46850Y-39945D03*
X71047Y-46457D03*
X73047Y-46457D03*
G54D15*
X59660Y-41142D03*
X62795Y-47362D03*
X64291Y-44213D03*
X61299Y-43898D03*
X63189Y-46260D03*
X63386Y-47717D03*
X62283Y-46969D03*
X62206Y-45944D03*
X63556Y-44314D03*
X59253Y-43887D03*
X61590Y-40268D03*
X45377Y-47549D03*
X45660Y-45900D03*
X48613Y-45986D03*
X53262Y-47433D03*
X54242Y-47336D03*
X52362Y-38268D03*
X46850Y-38701D03*
X64858Y-47985D03*
X48009Y-47211D03*
G54D16*
X52949Y-49748D02*
X52949Y-48134D01*
X52843Y-42626D02*
X56343Y-39126D01*
X52843Y-48028D02*
X52843Y-42626D01*
X52949Y-48134D02*
X52843Y-48028D01*
X53843Y-42626D02*
X57343Y-39126D01*
X53843Y-48044D02*
X53843Y-42626D01*
X53933Y-48134D02*
X53843Y-48044D01*
X53933Y-49748D02*
X53933Y-48134D01*
X58343Y-42459D02*
X58343Y-45126D01*
X59660Y-41142D02*
X58343Y-42459D01*
X62795Y-47362D02*
X62791Y-47760D01*
X62791Y-47760D02*
X62791Y-49748D01*
X61260Y-43898D02*
X61299Y-43898D01*
X60343Y-44815D02*
X61260Y-43898D01*
X60343Y-45126D02*
X60343Y-44815D01*
X63776Y-47523D02*
X63776Y-49748D01*
X64842Y-46457D02*
X63776Y-47523D01*
X64842Y-44764D02*
X64842Y-46457D01*
X64291Y-44213D02*
X64842Y-44764D01*
X63343Y-45126D02*
X63343Y-45279D01*
X63189Y-45512D02*
X63189Y-46260D01*
X63343Y-45358D02*
X63189Y-45512D01*
X63343Y-45279D02*
X63343Y-45358D01*
X63343Y-45126D02*
X63343Y-45279D01*
X63228Y-46969D02*
X62283Y-46969D01*
X64343Y-45854D02*
X63228Y-46969D01*
X64343Y-45126D02*
X64343Y-45854D01*
X62206Y-45944D02*
X62843Y-45307D01*
X62843Y-41626D02*
X65343Y-39126D01*
X62843Y-45307D02*
X62843Y-41626D01*
X66343Y-41527D02*
X66343Y-39126D01*
X63556Y-44314D02*
X66343Y-41527D01*
X61590Y-40328D02*
X59253Y-42665D01*
X59253Y-42665D02*
X59253Y-43887D01*
X61590Y-40268D02*
X61590Y-40328D01*
X54843Y-42626D02*
X58343Y-39126D01*
X54843Y-48060D02*
X54843Y-42626D01*
X54917Y-48134D02*
X54843Y-48060D01*
X54917Y-49748D02*
X54917Y-48134D01*
X55902Y-49748D02*
X55902Y-48134D01*
X55902Y-48134D02*
X55843Y-48075D01*
X55843Y-42626D02*
X59343Y-39126D01*
X55843Y-48075D02*
X55843Y-42626D01*
X56886Y-48134D02*
X56886Y-49748D01*
X56830Y-48078D02*
X56886Y-48134D01*
X56830Y-42639D02*
X56830Y-48078D01*
X60343Y-39126D02*
X56830Y-42639D01*
X61147Y-39126D02*
X61343Y-39126D01*
X57843Y-42430D02*
X61147Y-39126D01*
X57843Y-48107D02*
X57843Y-42430D01*
X57870Y-48134D02*
X57843Y-48107D01*
X57870Y-49748D02*
X57870Y-48134D01*
X62203Y-39126D02*
X61216Y-40113D01*
X62343Y-39126D02*
X62203Y-39126D01*
X61216Y-40113D02*
X61216Y-40253D01*
X61216Y-40253D02*
X58854Y-42615D01*
X58854Y-42615D02*
X58854Y-49748D01*
X59839Y-42630D02*
X59839Y-49748D01*
X63343Y-39126D02*
X59839Y-42630D01*
X61664Y-44447D02*
X62343Y-45126D01*
X61334Y-44447D02*
X61664Y-44447D01*
X60823Y-44958D02*
X61334Y-44447D01*
X60823Y-49748D02*
X60823Y-44958D01*
X61807Y-45590D02*
X61343Y-45126D01*
X61807Y-49748D02*
X61807Y-45590D01*
X42339Y-44511D02*
X45377Y-47549D01*
X42339Y-41551D02*
X42339Y-44511D01*
X39839Y-39051D02*
X42339Y-41551D01*
X44839Y-39051D02*
X44839Y-39562D01*
X46059Y-40782D02*
X46059Y-49748D01*
X44839Y-39562D02*
X46059Y-40782D01*
X45660Y-40872D02*
X45660Y-45900D01*
X43839Y-39051D02*
X45660Y-40872D01*
X45075Y-47807D02*
X45075Y-49748D01*
X41339Y-44071D02*
X45075Y-47807D01*
X41339Y-41551D02*
X41339Y-44071D01*
X38839Y-39051D02*
X41339Y-41551D01*
X50980Y-43489D02*
X55343Y-39126D01*
X50980Y-49748D02*
X50980Y-43489D01*
X49996Y-43473D02*
X54343Y-39126D01*
X49996Y-49748D02*
X49996Y-43473D01*
X49012Y-43457D02*
X53343Y-39126D01*
X49012Y-49748D02*
X49012Y-43457D01*
X48613Y-47549D02*
X48613Y-45986D01*
X48028Y-48134D02*
X48613Y-47549D01*
X48028Y-49748D02*
X48028Y-48134D01*
X53343Y-47352D02*
X53262Y-47433D01*
X53343Y-45126D02*
X53343Y-47352D01*
X54343Y-47235D02*
X54242Y-47336D01*
X54343Y-45126D02*
X54343Y-47235D01*
X73047Y-46457D02*
X72569Y-46935D01*
X36114Y-46063D02*
X36114Y-40776D01*
X36114Y-40776D02*
X37839Y-39051D01*
X37839Y-39051D02*
X38339Y-38551D01*
X67545Y-37904D02*
X53565Y-37904D01*
X41339Y-38551D02*
X41839Y-39051D01*
X53565Y-37904D02*
X52343Y-39126D01*
X72569Y-46935D02*
X66843Y-46935D01*
X66843Y-46935D02*
X64905Y-46935D01*
X64905Y-46935D02*
X64858Y-46982D01*
X38339Y-38551D02*
X41339Y-38551D01*
X68135Y-38494D02*
X67545Y-37904D01*
X47126Y-38268D02*
X52362Y-38268D01*
X64858Y-49748D02*
X64858Y-47985D01*
X46850Y-38701D02*
X46850Y-37992D01*
X64858Y-46982D02*
X64858Y-47985D01*
X66843Y-46935D02*
X66843Y-41603D01*
X66843Y-41603D02*
X68135Y-40311D01*
X68135Y-40311D02*
X68135Y-38494D01*
X46850Y-37992D02*
X47126Y-38268D01*
X47086Y-48134D02*
X48009Y-47211D01*
X47043Y-48134D02*
X47086Y-48134D01*
X47043Y-49748D02*
X47043Y-48134D01*
X41370Y-46063D02*
X37114Y-46063D01*
X43008Y-49748D02*
X43008Y-47701D01*
X43008Y-47701D02*
X41370Y-46063D01*
X71047Y-45252D02*
X70921Y-45126D01*
X70921Y-45126D02*
X67343Y-45126D01*
X71047Y-46457D02*
X71047Y-45252D01*
M02*
