G04 (created by PCBNEW (2013-07-07 BZR 4022)-stable) date 27/01/2014 10:53:56*
%MOIN*%
G04 Gerber Fmt 3.4, Leading zero omitted, Abs format*
%FSLAX34Y34*%
G01*
G70*
G90*
G04 APERTURE LIST*
%ADD10C,0.00590551*%
%ADD11C,0.012*%
%ADD12C,0.015*%
%ADD13C,0.01125*%
%ADD14C,0.0113*%
%ADD15C,0.008*%
G04 APERTURE END LIST*
G54D10*
G54D11*
X34281Y-38474D02*
X34366Y-38512D01*
X34509Y-38512D01*
X34566Y-38474D01*
X34595Y-38436D01*
X34623Y-38360D01*
X34623Y-38284D01*
X34595Y-38208D01*
X34566Y-38169D01*
X34509Y-38131D01*
X34395Y-38093D01*
X34338Y-38055D01*
X34309Y-38017D01*
X34281Y-37941D01*
X34281Y-37865D01*
X34309Y-37789D01*
X34338Y-37750D01*
X34395Y-37712D01*
X34538Y-37712D01*
X34623Y-37750D01*
X34881Y-37979D02*
X34881Y-38512D01*
X34881Y-38055D02*
X34909Y-38017D01*
X34966Y-37979D01*
X35052Y-37979D01*
X35109Y-38017D01*
X35138Y-38093D01*
X35138Y-38512D01*
X35652Y-38474D02*
X35595Y-38512D01*
X35481Y-38512D01*
X35423Y-38474D01*
X35395Y-38398D01*
X35395Y-38093D01*
X35423Y-38017D01*
X35481Y-37979D01*
X35595Y-37979D01*
X35652Y-38017D01*
X35681Y-38093D01*
X35681Y-38169D01*
X35395Y-38246D01*
X35909Y-38474D02*
X35966Y-38512D01*
X36081Y-38512D01*
X36138Y-38474D01*
X36166Y-38398D01*
X36166Y-38360D01*
X36138Y-38284D01*
X36081Y-38246D01*
X35995Y-38246D01*
X35938Y-38208D01*
X35909Y-38131D01*
X35909Y-38093D01*
X35938Y-38017D01*
X35995Y-37979D01*
X36081Y-37979D01*
X36138Y-38017D01*
X37166Y-38512D02*
X36881Y-38512D01*
X36881Y-37712D01*
X37452Y-38512D02*
X37395Y-38474D01*
X37366Y-38436D01*
X37338Y-38360D01*
X37338Y-38131D01*
X37366Y-38055D01*
X37395Y-38017D01*
X37452Y-37979D01*
X37538Y-37979D01*
X37595Y-38017D01*
X37623Y-38055D01*
X37652Y-38131D01*
X37652Y-38360D01*
X37623Y-38436D01*
X37595Y-38474D01*
X37538Y-38512D01*
X37452Y-38512D01*
X38252Y-38512D02*
X38052Y-38131D01*
X37909Y-38512D02*
X37909Y-37712D01*
X38138Y-37712D01*
X38195Y-37750D01*
X38223Y-37789D01*
X38252Y-37865D01*
X38252Y-37979D01*
X38223Y-38055D01*
X38195Y-38093D01*
X38138Y-38131D01*
X37909Y-38131D01*
X38595Y-38512D02*
X38538Y-38474D01*
X38509Y-38436D01*
X38481Y-38360D01*
X38481Y-38131D01*
X38509Y-38055D01*
X38538Y-38017D01*
X38595Y-37979D01*
X38681Y-37979D01*
X38738Y-38017D01*
X38766Y-38055D01*
X38795Y-38131D01*
X38795Y-38360D01*
X38766Y-38436D01*
X38738Y-38474D01*
X38681Y-38512D01*
X38595Y-38512D01*
X39052Y-38512D02*
X39052Y-37979D01*
X39052Y-38055D02*
X39081Y-38017D01*
X39138Y-37979D01*
X39223Y-37979D01*
X39281Y-38017D01*
X39309Y-38093D01*
X39309Y-38512D01*
X39309Y-38093D02*
X39338Y-38017D01*
X39395Y-37979D01*
X39481Y-37979D01*
X39538Y-38017D01*
X39566Y-38093D01*
X39566Y-38512D01*
X40395Y-38055D02*
X40338Y-38017D01*
X40309Y-37979D01*
X40281Y-37903D01*
X40281Y-37865D01*
X40309Y-37789D01*
X40338Y-37750D01*
X40395Y-37712D01*
X40509Y-37712D01*
X40566Y-37750D01*
X40595Y-37789D01*
X40623Y-37865D01*
X40623Y-37903D01*
X40595Y-37979D01*
X40566Y-38017D01*
X40509Y-38055D01*
X40395Y-38055D01*
X40338Y-38093D01*
X40309Y-38131D01*
X40281Y-38208D01*
X40281Y-38360D01*
X40309Y-38436D01*
X40338Y-38474D01*
X40395Y-38512D01*
X40509Y-38512D01*
X40566Y-38474D01*
X40595Y-38436D01*
X40623Y-38360D01*
X40623Y-38208D01*
X40595Y-38131D01*
X40566Y-38093D01*
X40509Y-38055D01*
X40881Y-38512D02*
X40881Y-37712D01*
X41081Y-38284D01*
X41281Y-37712D01*
X41281Y-38512D01*
X41566Y-38512D02*
X41566Y-37712D01*
X41566Y-38017D02*
X41623Y-37979D01*
X41738Y-37979D01*
X41795Y-38017D01*
X41823Y-38055D01*
X41852Y-38131D01*
X41852Y-38360D01*
X41823Y-38436D01*
X41795Y-38474D01*
X41738Y-38512D01*
X41623Y-38512D01*
X41566Y-38474D01*
X42109Y-38512D02*
X42109Y-37979D01*
X42109Y-37712D02*
X42081Y-37750D01*
X42109Y-37789D01*
X42138Y-37750D01*
X42109Y-37712D01*
X42109Y-37789D01*
X42309Y-37979D02*
X42538Y-37979D01*
X42395Y-37712D02*
X42395Y-38398D01*
X42423Y-38474D01*
X42480Y-38512D01*
X42538Y-38512D01*
X43195Y-38208D02*
X43652Y-38208D01*
X44366Y-37789D02*
X44395Y-37750D01*
X44452Y-37712D01*
X44595Y-37712D01*
X44652Y-37750D01*
X44680Y-37789D01*
X44709Y-37865D01*
X44709Y-37941D01*
X44680Y-38055D01*
X44338Y-38512D01*
X44709Y-38512D01*
X44909Y-37712D02*
X45309Y-37712D01*
X45052Y-38512D01*
X45881Y-38436D02*
X45852Y-38474D01*
X45766Y-38512D01*
X45709Y-38512D01*
X45623Y-38474D01*
X45566Y-38398D01*
X45538Y-38322D01*
X45509Y-38169D01*
X45509Y-38055D01*
X45538Y-37903D01*
X45566Y-37827D01*
X45623Y-37750D01*
X45709Y-37712D01*
X45766Y-37712D01*
X45852Y-37750D01*
X45881Y-37789D01*
X46223Y-38055D02*
X46166Y-38017D01*
X46138Y-37979D01*
X46109Y-37903D01*
X46109Y-37865D01*
X46138Y-37789D01*
X46166Y-37750D01*
X46223Y-37712D01*
X46338Y-37712D01*
X46395Y-37750D01*
X46423Y-37789D01*
X46452Y-37865D01*
X46452Y-37903D01*
X46423Y-37979D01*
X46395Y-38017D01*
X46338Y-38055D01*
X46223Y-38055D01*
X46166Y-38093D01*
X46138Y-38131D01*
X46109Y-38208D01*
X46109Y-38360D01*
X46138Y-38436D01*
X46166Y-38474D01*
X46223Y-38512D01*
X46338Y-38512D01*
X46395Y-38474D01*
X46423Y-38436D01*
X46452Y-38360D01*
X46452Y-38208D01*
X46423Y-38131D01*
X46395Y-38093D01*
X46338Y-38055D01*
X46823Y-37712D02*
X46881Y-37712D01*
X46938Y-37750D01*
X46966Y-37789D01*
X46995Y-37865D01*
X47023Y-38017D01*
X47023Y-38208D01*
X46995Y-38360D01*
X46966Y-38436D01*
X46938Y-38474D01*
X46881Y-38512D01*
X46823Y-38512D01*
X46766Y-38474D01*
X46738Y-38436D01*
X46709Y-38360D01*
X46681Y-38208D01*
X46681Y-38017D01*
X46709Y-37865D01*
X46738Y-37789D01*
X46766Y-37750D01*
X46823Y-37712D01*
X47595Y-38512D02*
X47252Y-38512D01*
X47423Y-38512D02*
X47423Y-37712D01*
X47366Y-37827D01*
X47309Y-37903D01*
X47252Y-37941D01*
X48795Y-37903D02*
X48738Y-37865D01*
X48623Y-37865D01*
X48566Y-37903D01*
X48509Y-37979D01*
X48481Y-38055D01*
X48481Y-38208D01*
X48509Y-38284D01*
X48566Y-38360D01*
X48623Y-38398D01*
X48738Y-38398D01*
X48795Y-38360D01*
X48681Y-37598D02*
X48538Y-37636D01*
X48395Y-37750D01*
X48309Y-37941D01*
X48281Y-38131D01*
X48309Y-38322D01*
X48395Y-38512D01*
X48538Y-38627D01*
X48681Y-38665D01*
X48823Y-38627D01*
X48966Y-38512D01*
X49052Y-38322D01*
X49081Y-38131D01*
X49052Y-37941D01*
X48966Y-37750D01*
X48823Y-37636D01*
X48681Y-37598D01*
X49795Y-37712D02*
X49795Y-38360D01*
X49823Y-38436D01*
X49852Y-38474D01*
X49909Y-38512D01*
X50023Y-38512D01*
X50081Y-38474D01*
X50109Y-38436D01*
X50138Y-38360D01*
X50138Y-37712D01*
X50509Y-38512D02*
X50452Y-38474D01*
X50423Y-38398D01*
X50423Y-37712D01*
X50652Y-37979D02*
X50881Y-37979D01*
X50738Y-37712D02*
X50738Y-38398D01*
X50766Y-38474D01*
X50823Y-38512D01*
X50881Y-38512D01*
X51081Y-38512D02*
X51081Y-37979D01*
X51081Y-37712D02*
X51052Y-37750D01*
X51081Y-37789D01*
X51109Y-37750D01*
X51081Y-37712D01*
X51081Y-37789D01*
X51366Y-38512D02*
X51366Y-37979D01*
X51366Y-38055D02*
X51395Y-38017D01*
X51452Y-37979D01*
X51538Y-37979D01*
X51595Y-38017D01*
X51623Y-38093D01*
X51623Y-38512D01*
X51623Y-38093D02*
X51652Y-38017D01*
X51709Y-37979D01*
X51795Y-37979D01*
X51852Y-38017D01*
X51881Y-38093D01*
X51881Y-38512D01*
X52423Y-38512D02*
X52423Y-38093D01*
X52395Y-38017D01*
X52338Y-37979D01*
X52223Y-37979D01*
X52166Y-38017D01*
X52423Y-38474D02*
X52366Y-38512D01*
X52223Y-38512D01*
X52166Y-38474D01*
X52138Y-38398D01*
X52138Y-38322D01*
X52166Y-38246D01*
X52223Y-38208D01*
X52366Y-38208D01*
X52423Y-38169D01*
X52623Y-37979D02*
X52852Y-37979D01*
X52709Y-37712D02*
X52709Y-38398D01*
X52738Y-38474D01*
X52795Y-38512D01*
X52852Y-38512D01*
X53281Y-38474D02*
X53223Y-38512D01*
X53109Y-38512D01*
X53052Y-38474D01*
X53023Y-38398D01*
X53023Y-38093D01*
X53052Y-38017D01*
X53109Y-37979D01*
X53223Y-37979D01*
X53281Y-38017D01*
X53309Y-38093D01*
X53309Y-38169D01*
X53023Y-38246D01*
X53566Y-38208D02*
X54023Y-38208D01*
X54652Y-38436D02*
X54623Y-38474D01*
X54538Y-38512D01*
X54481Y-38512D01*
X54395Y-38474D01*
X54338Y-38398D01*
X54309Y-38322D01*
X54281Y-38169D01*
X54281Y-38055D01*
X54309Y-37903D01*
X54338Y-37827D01*
X54395Y-37750D01*
X54481Y-37712D01*
X54538Y-37712D01*
X54623Y-37750D01*
X54652Y-37789D01*
X54995Y-38512D02*
X54938Y-38474D01*
X54909Y-38436D01*
X54881Y-38360D01*
X54881Y-38131D01*
X54909Y-38055D01*
X54938Y-38017D01*
X54995Y-37979D01*
X55081Y-37979D01*
X55138Y-38017D01*
X55166Y-38055D01*
X55195Y-38131D01*
X55195Y-38360D01*
X55166Y-38436D01*
X55138Y-38474D01*
X55081Y-38512D01*
X54995Y-38512D01*
X55452Y-37979D02*
X55452Y-38512D01*
X55452Y-38055D02*
X55481Y-38017D01*
X55538Y-37979D01*
X55623Y-37979D01*
X55681Y-38017D01*
X55709Y-38093D01*
X55709Y-38512D01*
X55966Y-38474D02*
X56023Y-38512D01*
X56138Y-38512D01*
X56195Y-38474D01*
X56223Y-38398D01*
X56223Y-38360D01*
X56195Y-38284D01*
X56138Y-38246D01*
X56052Y-38246D01*
X55995Y-38208D01*
X55966Y-38131D01*
X55966Y-38093D01*
X55995Y-38017D01*
X56052Y-37979D01*
X56138Y-37979D01*
X56195Y-38017D01*
X56566Y-38512D02*
X56509Y-38474D01*
X56481Y-38436D01*
X56452Y-38360D01*
X56452Y-38131D01*
X56481Y-38055D01*
X56509Y-38017D01*
X56566Y-37979D01*
X56652Y-37979D01*
X56709Y-38017D01*
X56738Y-38055D01*
X56766Y-38131D01*
X56766Y-38360D01*
X56738Y-38436D01*
X56709Y-38474D01*
X56652Y-38512D01*
X56566Y-38512D01*
X57109Y-38512D02*
X57052Y-38474D01*
X57023Y-38398D01*
X57023Y-37712D01*
X57566Y-38474D02*
X57509Y-38512D01*
X57395Y-38512D01*
X57338Y-38474D01*
X57309Y-38398D01*
X57309Y-38093D01*
X57338Y-38017D01*
X57395Y-37979D01*
X57509Y-37979D01*
X57566Y-38017D01*
X57595Y-38093D01*
X57595Y-38169D01*
X57309Y-38246D01*
X57823Y-38474D02*
X57881Y-38512D01*
X57995Y-38512D01*
X58052Y-38474D01*
X58081Y-38398D01*
X58081Y-38360D01*
X58052Y-38284D01*
X57995Y-38246D01*
X57909Y-38246D01*
X57852Y-38208D01*
X57823Y-38131D01*
X57823Y-38093D01*
X57852Y-38017D01*
X57909Y-37979D01*
X57995Y-37979D01*
X58052Y-38017D01*
G54D12*
X68343Y-44626D02*
X51343Y-44626D01*
X51343Y-44626D02*
X51343Y-39626D01*
X51343Y-39626D02*
X68343Y-39626D01*
X68343Y-39626D02*
X68343Y-44626D01*
X68343Y-41626D02*
X67843Y-41626D01*
X67843Y-41626D02*
X67843Y-42626D01*
X67843Y-42626D02*
X68343Y-42626D01*
X45839Y-41051D02*
X45839Y-41051D01*
X45839Y-41051D02*
X45339Y-41051D01*
X45339Y-41051D02*
X45339Y-40051D01*
X45339Y-40051D02*
X45839Y-40051D01*
X45839Y-41551D02*
X36839Y-41551D01*
X36839Y-41551D02*
X36839Y-39551D01*
X36839Y-39551D02*
X45839Y-39551D01*
X45839Y-39551D02*
X45839Y-41551D01*
G54D11*
X37594Y-46563D02*
X35614Y-46563D01*
X35614Y-46563D02*
X35614Y-45563D01*
X35614Y-45563D02*
X37614Y-45563D01*
X37614Y-45563D02*
X37614Y-46563D01*
X37614Y-46313D02*
X37364Y-46563D01*
G54D12*
X42122Y-48173D02*
X65744Y-48173D01*
X65744Y-48173D02*
X65744Y-51323D01*
X65744Y-51323D02*
X42122Y-51323D01*
X42122Y-51323D02*
X42122Y-48173D01*
G54D11*
X46450Y-42345D02*
X46450Y-39545D01*
X46450Y-39545D02*
X47250Y-39545D01*
X47250Y-39545D02*
X47250Y-42345D01*
X47250Y-42345D02*
X46450Y-42345D01*
X46650Y-42345D02*
X46450Y-42145D01*
X70647Y-46057D02*
X73447Y-46057D01*
X73447Y-46057D02*
X73447Y-46857D01*
X73447Y-46857D02*
X70647Y-46857D01*
X70647Y-46857D02*
X70647Y-46057D01*
X70647Y-46257D02*
X70847Y-46057D01*
X64809Y-43209D02*
X64809Y-43776D01*
X64843Y-43842D01*
X64876Y-43876D01*
X64943Y-43909D01*
X65076Y-43909D01*
X65143Y-43876D01*
X65176Y-43842D01*
X65209Y-43776D01*
X65209Y-43209D01*
X65909Y-43909D02*
X65509Y-43909D01*
X65709Y-43909D02*
X65709Y-43209D01*
X65643Y-43309D01*
X65576Y-43376D01*
X65509Y-43409D01*
X54093Y-40909D02*
X54093Y-40209D01*
X54326Y-40709D01*
X54559Y-40209D01*
X54559Y-40909D01*
X54859Y-40276D02*
X54893Y-40242D01*
X54959Y-40209D01*
X55126Y-40209D01*
X55193Y-40242D01*
X55226Y-40276D01*
X55259Y-40342D01*
X55259Y-40409D01*
X55226Y-40509D01*
X54826Y-40909D01*
X55259Y-40909D01*
X55493Y-40209D02*
X55959Y-40209D01*
X55659Y-40909D01*
X56626Y-40842D02*
X56593Y-40876D01*
X56493Y-40909D01*
X56426Y-40909D01*
X56326Y-40876D01*
X56259Y-40809D01*
X56226Y-40742D01*
X56193Y-40609D01*
X56193Y-40509D01*
X56226Y-40376D01*
X56259Y-40309D01*
X56326Y-40242D01*
X56426Y-40209D01*
X56493Y-40209D01*
X56593Y-40242D01*
X56626Y-40276D01*
X57026Y-40509D02*
X56959Y-40476D01*
X56926Y-40442D01*
X56893Y-40376D01*
X56893Y-40342D01*
X56926Y-40276D01*
X56959Y-40242D01*
X57026Y-40209D01*
X57159Y-40209D01*
X57226Y-40242D01*
X57259Y-40276D01*
X57293Y-40342D01*
X57293Y-40376D01*
X57259Y-40442D01*
X57226Y-40476D01*
X57159Y-40509D01*
X57026Y-40509D01*
X56959Y-40542D01*
X56926Y-40576D01*
X56893Y-40642D01*
X56893Y-40776D01*
X56926Y-40842D01*
X56959Y-40876D01*
X57026Y-40909D01*
X57159Y-40909D01*
X57226Y-40876D01*
X57259Y-40842D01*
X57293Y-40776D01*
X57293Y-40642D01*
X57259Y-40576D01*
X57226Y-40542D01*
X57159Y-40509D01*
X57726Y-40209D02*
X57793Y-40209D01*
X57859Y-40242D01*
X57893Y-40276D01*
X57926Y-40342D01*
X57959Y-40476D01*
X57959Y-40642D01*
X57926Y-40776D01*
X57893Y-40842D01*
X57859Y-40876D01*
X57793Y-40909D01*
X57726Y-40909D01*
X57659Y-40876D01*
X57626Y-40842D01*
X57593Y-40776D01*
X57559Y-40642D01*
X57559Y-40476D01*
X57593Y-40342D01*
X57626Y-40276D01*
X57659Y-40242D01*
X57726Y-40209D01*
X58626Y-40909D02*
X58226Y-40909D01*
X58426Y-40909D02*
X58426Y-40209D01*
X58359Y-40309D01*
X58293Y-40376D01*
X58226Y-40409D01*
G54D13*
X43496Y-40693D02*
X43496Y-41179D01*
X43517Y-41236D01*
X43539Y-41265D01*
X43581Y-41293D01*
X43667Y-41293D01*
X43710Y-41265D01*
X43731Y-41236D01*
X43753Y-41179D01*
X43753Y-40693D01*
X43946Y-40751D02*
X43967Y-40722D01*
X44010Y-40693D01*
X44117Y-40693D01*
X44160Y-40722D01*
X44181Y-40751D01*
X44203Y-40808D01*
X44203Y-40865D01*
X44181Y-40951D01*
X43924Y-41293D01*
X44203Y-41293D01*
G54D14*
G54D13*
X40146Y-40236D02*
X40124Y-40265D01*
X40060Y-40293D01*
X40017Y-40293D01*
X39953Y-40265D01*
X39910Y-40208D01*
X39889Y-40151D01*
X39867Y-40036D01*
X39867Y-39951D01*
X39889Y-39836D01*
X39910Y-39779D01*
X39953Y-39722D01*
X40017Y-39693D01*
X40060Y-39693D01*
X40124Y-39722D01*
X40146Y-39751D01*
X40339Y-40293D02*
X40339Y-39693D01*
X40810Y-40236D02*
X40789Y-40265D01*
X40724Y-40293D01*
X40681Y-40293D01*
X40617Y-40265D01*
X40574Y-40208D01*
X40553Y-40151D01*
X40531Y-40036D01*
X40531Y-39951D01*
X40553Y-39836D01*
X40574Y-39779D01*
X40617Y-39722D01*
X40681Y-39693D01*
X40724Y-39693D01*
X40789Y-39722D01*
X40810Y-39751D01*
G54D14*
G54D15*
X36447Y-47086D02*
X36428Y-47105D01*
X36371Y-47124D01*
X36333Y-47124D01*
X36275Y-47105D01*
X36237Y-47067D01*
X36218Y-47029D01*
X36199Y-46953D01*
X36199Y-46896D01*
X36218Y-46820D01*
X36237Y-46782D01*
X36275Y-46743D01*
X36333Y-46724D01*
X36371Y-46724D01*
X36428Y-46743D01*
X36447Y-46763D01*
X36828Y-47124D02*
X36599Y-47124D01*
X36714Y-47124D02*
X36714Y-46724D01*
X36675Y-46782D01*
X36637Y-46820D01*
X36599Y-46839D01*
G54D11*
G54D15*
X46973Y-41011D02*
X46992Y-41030D01*
X47011Y-41087D01*
X47011Y-41125D01*
X46992Y-41183D01*
X46954Y-41221D01*
X46916Y-41240D01*
X46840Y-41259D01*
X46783Y-41259D01*
X46707Y-41240D01*
X46669Y-41221D01*
X46630Y-41183D01*
X46611Y-41125D01*
X46611Y-41087D01*
X46630Y-41030D01*
X46650Y-41011D01*
X46650Y-40859D02*
X46630Y-40840D01*
X46611Y-40802D01*
X46611Y-40706D01*
X46630Y-40668D01*
X46650Y-40649D01*
X46688Y-40630D01*
X46726Y-40630D01*
X46783Y-40649D01*
X47011Y-40878D01*
X47011Y-40630D01*
X71980Y-46580D02*
X71961Y-46599D01*
X71904Y-46618D01*
X71866Y-46618D01*
X71808Y-46599D01*
X71770Y-46561D01*
X71751Y-46523D01*
X71732Y-46447D01*
X71732Y-46390D01*
X71751Y-46314D01*
X71770Y-46276D01*
X71808Y-46237D01*
X71866Y-46218D01*
X71904Y-46218D01*
X71961Y-46237D01*
X71980Y-46257D01*
X72113Y-46218D02*
X72361Y-46218D01*
X72227Y-46371D01*
X72285Y-46371D01*
X72323Y-46390D01*
X72342Y-46409D01*
X72361Y-46447D01*
X72361Y-46542D01*
X72342Y-46580D01*
X72323Y-46599D01*
X72285Y-46618D01*
X72170Y-46618D01*
X72132Y-46599D01*
X72113Y-46580D01*
M02*
